<mxfile host="app.diagrams.net" modified="2024-06-17T12:40:06.619Z" agent="Mozilla/5.0 (Windows NT 10.0; Win64; x64) AppleWebKit/537.36 (KHTML, like Gecko) Chrome/125.0.0.0 Safari/537.36" etag="chjvsxxcpu9iC15QGKEP" version="24.4.13" type="device">
  <diagram name="Page-1" id="J8Q7x25F7DtqS79uL8jC">
    <mxGraphModel dx="1909" dy="1013" grid="1" gridSize="10" guides="1" tooltips="1" connect="1" arrows="1" fold="1" page="1" pageScale="1" pageWidth="1654" pageHeight="2336" math="0" shadow="0">
      <root>
        <mxCell id="0" />
        <mxCell id="1" parent="0" />
        <mxCell id="a2pVIeDOSR2pfR4eeCRD-1" value="User (empolyee)" style="shape=umlActor;verticalLabelPosition=bottom;verticalAlign=top;html=1;outlineConnect=0;fontSize=20;" vertex="1" parent="1">
          <mxGeometry x="80" y="978" width="110" height="190" as="geometry" />
        </mxCell>
        <mxCell id="a2pVIeDOSR2pfR4eeCRD-3" value="" style="rounded=0;whiteSpace=wrap;html=1;" vertex="1" parent="1">
          <mxGeometry x="270" y="400" width="1060" height="1170" as="geometry" />
        </mxCell>
        <mxCell id="a2pVIeDOSR2pfR4eeCRD-4" value="&lt;span style=&quot;font-size: 20px;&quot;&gt;update item state&lt;/span&gt;" style="ellipse;whiteSpace=wrap;html=1;" vertex="1" parent="1">
          <mxGeometry x="630" y="990" width="250" height="80" as="geometry" />
        </mxCell>
        <mxCell id="a2pVIeDOSR2pfR4eeCRD-6" value="order new stock" style="ellipse;whiteSpace=wrap;html=1;fontSize=20;" vertex="1" parent="1">
          <mxGeometry x="600" y="520" width="250" height="80" as="geometry" />
        </mxCell>
        <mxCell id="a2pVIeDOSR2pfR4eeCRD-7" value="browse items left" style="ellipse;whiteSpace=wrap;html=1;fontSize=20;" vertex="1" parent="1">
          <mxGeometry x="670" y="1280" width="260" height="80" as="geometry" />
        </mxCell>
        <mxCell id="a2pVIeDOSR2pfR4eeCRD-10" value="" style="endArrow=none;html=1;rounded=0;exitX=0.5;exitY=0.5;exitDx=0;exitDy=0;exitPerimeter=0;entryX=0;entryY=0.5;entryDx=0;entryDy=0;" edge="1" parent="1" source="a2pVIeDOSR2pfR4eeCRD-1" target="a2pVIeDOSR2pfR4eeCRD-4">
          <mxGeometry width="50" height="50" relative="1" as="geometry">
            <mxPoint x="700" y="1030" as="sourcePoint" />
            <mxPoint x="750" y="980" as="targetPoint" />
          </mxGeometry>
        </mxCell>
        <mxCell id="a2pVIeDOSR2pfR4eeCRD-12" value="" style="endArrow=none;html=1;rounded=0;exitX=0;exitY=0.5;exitDx=0;exitDy=0;entryX=0.5;entryY=0.5;entryDx=0;entryDy=0;entryPerimeter=0;" edge="1" parent="1" source="a2pVIeDOSR2pfR4eeCRD-7" target="a2pVIeDOSR2pfR4eeCRD-1">
          <mxGeometry width="50" height="50" relative="1" as="geometry">
            <mxPoint x="680" y="870" as="sourcePoint" />
            <mxPoint x="730" y="820" as="targetPoint" />
          </mxGeometry>
        </mxCell>
        <mxCell id="a2pVIeDOSR2pfR4eeCRD-14" value="Alert item is about running out of stock" style="ellipse;whiteSpace=wrap;html=1;fontSize=20;" vertex="1" parent="1">
          <mxGeometry x="400" y="740" width="330" height="122" as="geometry" />
        </mxCell>
        <mxCell id="a2pVIeDOSR2pfR4eeCRD-17" value="&lt;span style=&quot;font-size: 20px;&quot;&gt;sell item&lt;/span&gt;" style="ellipse;whiteSpace=wrap;html=1;" vertex="1" parent="1">
          <mxGeometry x="450" y="1128" width="250" height="80" as="geometry" />
        </mxCell>
        <mxCell id="a2pVIeDOSR2pfR4eeCRD-19" value="&lt;span style=&quot;font-size: 20px;&quot;&gt;damage/expired item&lt;/span&gt;" style="ellipse;whiteSpace=wrap;html=1;" vertex="1" parent="1">
          <mxGeometry x="800" y="1128" width="250" height="80" as="geometry" />
        </mxCell>
        <mxCell id="a2pVIeDOSR2pfR4eeCRD-20" value="&lt;br&gt;&lt;span style=&quot;color: rgb(0, 0, 0); font-family: Helvetica; font-size: 18px; font-style: normal; font-variant-ligatures: normal; font-variant-caps: normal; font-weight: 400; letter-spacing: normal; orphans: 2; text-align: center; text-indent: 0px; text-transform: none; widows: 2; word-spacing: 0px; -webkit-text-stroke-width: 0px; white-space: nowrap; background-color: rgb(255, 255, 255); text-decoration-thickness: initial; text-decoration-style: initial; text-decoration-color: initial; display: inline !important; float: none;&quot;&gt;&amp;lt;&amp;lt;extends&amp;gt;&amp;gt;&lt;/span&gt;&lt;div&gt;&lt;br/&gt;&lt;/div&gt;" style="endArrow=classic;html=1;rounded=0;entryX=0.5;entryY=1;entryDx=0;entryDy=0;exitX=0.5;exitY=0;exitDx=0;exitDy=0;dashed=1;startArrow=none;startFill=0;endFill=1;" edge="1" parent="1" source="a2pVIeDOSR2pfR4eeCRD-17" target="a2pVIeDOSR2pfR4eeCRD-4">
          <mxGeometry x="-0.761" y="43" width="50" height="50" relative="1" as="geometry">
            <mxPoint x="700" y="1220" as="sourcePoint" />
            <mxPoint x="750" y="1170" as="targetPoint" />
            <Array as="points">
              <mxPoint x="660" y="1100" />
            </Array>
            <mxPoint as="offset" />
          </mxGeometry>
        </mxCell>
        <mxCell id="a2pVIeDOSR2pfR4eeCRD-21" value="&#xa;&lt;span style=&quot;forced-color-adjust: none; color: rgb(0, 0, 0); font-family: Helvetica; font-style: normal; font-variant-ligatures: normal; font-variant-caps: normal; font-weight: 400; letter-spacing: normal; orphans: 2; text-align: center; text-indent: 0px; text-transform: none; widows: 2; word-spacing: 0px; -webkit-text-stroke-width: 0px; white-space: nowrap; background-color: rgb(255, 255, 255); text-decoration-thickness: initial; text-decoration-style: initial; text-decoration-color: initial; font-size: 18px; float: none; display: inline !important;&quot;&gt;&amp;lt;&amp;lt;extends&amp;gt;&amp;gt;&lt;/span&gt;&lt;br style=&quot;forced-color-adjust: none; color: rgb(0, 0, 0); font-family: Helvetica; font-size: 11px; font-style: normal; font-variant-ligatures: normal; font-variant-caps: normal; font-weight: 400; letter-spacing: normal; orphans: 2; text-align: center; text-indent: 0px; text-transform: none; widows: 2; word-spacing: 0px; -webkit-text-stroke-width: 0px; white-space: nowrap; text-decoration-thickness: initial; text-decoration-style: initial; text-decoration-color: initial;&quot;&gt;&#xa;&#xa;" style="endArrow=none;html=1;rounded=0;entryX=0.5;entryY=0;entryDx=0;entryDy=0;exitX=0.5;exitY=1;exitDx=0;exitDy=0;endFill=0;dashed=1;startArrow=classic;startFill=1;" edge="1" parent="1" source="a2pVIeDOSR2pfR4eeCRD-4" target="a2pVIeDOSR2pfR4eeCRD-19">
          <mxGeometry x="1" y="45" width="50" height="50" relative="1" as="geometry">
            <mxPoint x="760" y="1070" as="sourcePoint" />
            <mxPoint x="1030" y="1040" as="targetPoint" />
            <mxPoint x="10" y="4" as="offset" />
          </mxGeometry>
        </mxCell>
        <mxCell id="a2pVIeDOSR2pfR4eeCRD-24" value="&lt;font style=&quot;font-size: 18px;&quot;&gt;&amp;lt;&amp;lt;includes&amp;gt;&amp;gt;&lt;/font&gt;" style="endArrow=classic;html=1;rounded=0;entryX=0.5;entryY=1;entryDx=0;entryDy=0;exitX=0.5;exitY=0;exitDx=0;exitDy=0;endFill=1;" edge="1" parent="1" source="a2pVIeDOSR2pfR4eeCRD-4" target="a2pVIeDOSR2pfR4eeCRD-14">
          <mxGeometry x="-0.5773" y="-51" width="50" height="50" relative="1" as="geometry">
            <mxPoint x="610" y="1000" as="sourcePoint" />
            <mxPoint x="660" y="950" as="targetPoint" />
            <mxPoint as="offset" />
          </mxGeometry>
        </mxCell>
        <mxCell id="a2pVIeDOSR2pfR4eeCRD-25" value="&lt;div&gt;&lt;span style=&quot;font-size: 18px;&quot;&gt;&amp;lt;&amp;lt;includes&amp;gt;&amp;gt;&lt;/span&gt;&lt;br&gt;&lt;/div&gt;" style="endArrow=classic;html=1;rounded=0;entryX=0.5;entryY=1;entryDx=0;entryDy=0;endFill=1;" edge="1" parent="1" target="a2pVIeDOSR2pfR4eeCRD-6">
          <mxGeometry x="0.0366" y="-60" width="50" height="50" relative="1" as="geometry">
            <mxPoint x="565" y="740" as="sourcePoint" />
            <mxPoint x="750" y="910" as="targetPoint" />
            <mxPoint as="offset" />
          </mxGeometry>
        </mxCell>
        <mxCell id="a2pVIeDOSR2pfR4eeCRD-26" value="add new supplier" style="ellipse;whiteSpace=wrap;html=1;fontSize=20;" vertex="1" parent="1">
          <mxGeometry x="577" y="1420" width="250" height="80" as="geometry" />
        </mxCell>
        <mxCell id="a2pVIeDOSR2pfR4eeCRD-27" value="" style="endArrow=none;html=1;rounded=0;exitX=0.5;exitY=0;exitDx=0;exitDy=0;entryX=0.5;entryY=0.5;entryDx=0;entryDy=0;entryPerimeter=0;" edge="1" parent="1" source="a2pVIeDOSR2pfR4eeCRD-26" target="a2pVIeDOSR2pfR4eeCRD-1">
          <mxGeometry width="50" height="50" relative="1" as="geometry">
            <mxPoint x="620" y="1310" as="sourcePoint" />
            <mxPoint x="145" y="1083" as="targetPoint" />
          </mxGeometry>
        </mxCell>
        <mxCell id="a2pVIeDOSR2pfR4eeCRD-29" value="&lt;font style=&quot;font-size: 21px;&quot;&gt;Monthly times order process&lt;/font&gt;" style="ellipse;whiteSpace=wrap;html=1;" vertex="1" parent="1">
          <mxGeometry x="800" y="760" width="330" height="80" as="geometry" />
        </mxCell>
        <mxCell id="a2pVIeDOSR2pfR4eeCRD-30" value="&lt;br&gt;&lt;span style=&quot;font-size: 18px;&quot;&gt;&amp;lt;&amp;lt;extends&amp;gt;&amp;gt;&lt;/span&gt;&lt;div&gt;&lt;br&gt;&lt;/div&gt;" style="endArrow=classic;html=1;rounded=0;entryX=0.5;entryY=1;entryDx=0;entryDy=0;exitX=0.5;exitY=0;exitDx=0;exitDy=0;endFill=1;" edge="1" parent="1" source="a2pVIeDOSR2pfR4eeCRD-29" target="a2pVIeDOSR2pfR4eeCRD-6">
          <mxGeometry x="-0.5096" y="-61" width="50" height="50" relative="1" as="geometry">
            <mxPoint x="575" y="750" as="sourcePoint" />
            <mxPoint x="735" y="610" as="targetPoint" />
            <mxPoint x="-1" as="offset" />
          </mxGeometry>
        </mxCell>
      </root>
    </mxGraphModel>
  </diagram>
</mxfile>
